<svg width="174" height="144" viewBox="0 0 174 144" fill="none" xmlns="http://www.w3.org/2000/svg">
<g id="Icons" style="mix-blend-mode:plus-lighter" clip-path="url(#clip0_40_2198)">
<path id="Vector" d="M102 142.16C157.228 142.16 202 119.774 202 92.1602C202 64.5459 157.228 42.1602 102 42.1602C46.7715 42.1602 2 64.5459 2 92.1602C2 119.774 46.7715 142.16 102 142.16Z" stroke="#353535" stroke-linecap="round" stroke-linejoin="round"/>
<path id="Vector_2" d="M151.995 178.766C175.909 164.959 172.91 114.992 145.296 67.1631C117.682 19.3338 75.9093 -8.24657 51.9946 5.56055C28.08 19.3677 31.0791 69.3338 58.6934 117.163C86.3076 164.992 128.08 192.573 151.995 178.766Z" stroke="#353535" stroke-linecap="round" stroke-linejoin="round"/>
<path id="Vector_3" d="M145.304 117.166C172.918 69.3363 175.918 19.3701 152.003 5.56299C128.088 -8.24413 86.3159 19.3363 58.7017 67.1655C31.0874 114.995 28.0883 164.961 52.0029 178.768C75.9176 192.575 117.69 164.995 145.304 117.166Z" stroke="#353535" stroke-linecap="round" stroke-linejoin="round"/>
<path id="Vector_4" d="M127.44 73.3199C130.35 76.2299 131.81 80.0499 131.81 83.8699C131.81 87.6899 130.35 91.5099 127.44 94.4199L101.95 119.91L76.4599 94.4199C70.6299 88.5899 70.6299 79.1399 76.4599 73.3099C79.3699 70.3999 83.1899 68.9399 87.0199 68.9399C90.8499 68.9399 94.6599 70.3999 97.5699 73.3099L101.96 77.6999L106.34 73.3199C112.17 67.4899 121.62 67.4899 127.45 73.3199H127.44Z" stroke="#353535" stroke-linecap="round" stroke-linejoin="round"/>
</g>
<defs>
<clipPath id="clip0_40_2198">
<rect width="204" height="184.32" fill="white"/>
</clipPath>
</defs>
</svg>
