<svg width="146" height="140" viewBox="0 0 146 140" fill="none" xmlns="http://www.w3.org/2000/svg">
<g id="Icons" style="mix-blend-mode:plus-lighter">
<g id="Talk">
<g id="Group">
<path id="Vector" d="M2.36377 138.858L6.47376 97.9429C6.82929 94.3947 8.65674 91.1664 11.5081 89.0261C13.7125 87.3693 16.3932 86.4805 19.1521 86.4805H23.5466C29.1498 86.4805 34.1628 89.9505 36.1325 95.1911L42.7028 112.662C43.2859 114.219 44.7791 115.25 46.443 115.25H57.941C61.8804 115.25 65.0731 118.443 65.0731 122.382C65.0731 126.322 61.8804 129.514 57.941 129.514H40.3705C37.2347 129.514 34.3406 127.808 32.826 125.063L25.9713 112.669" stroke="#353535" stroke-width="0.711071" stroke-linecap="round" stroke-linejoin="round"/>
<path id="Vector_2" d="M35.3287 127.879L35.0728 138.858" stroke="#353535" stroke-width="0.711071" stroke-linecap="round" stroke-linejoin="round"/>
<path id="Vector_3" d="M37.7953 70.4339C39.4642 63.363 35.085 56.278 28.0141 54.6091C20.9432 52.9402 13.8582 57.3194 12.1893 64.3903C10.5204 71.4612 14.8996 78.5463 21.9705 80.2151C29.0414 81.884 36.1264 77.5048 37.7953 70.4339Z" stroke="#353535" stroke-width="0.711071" stroke-linecap="round" stroke-linejoin="round"/>
</g>
<g id="Group_2">
<path id="Vector_4" d="M144.578 138.858L140.468 97.9429C140.112 94.3947 138.285 91.1664 135.434 89.0261C133.229 87.3693 130.549 86.4805 127.79 86.4805H123.395C117.792 86.4805 112.779 89.9505 110.809 95.1911L104.239 112.662C103.656 114.219 102.163 115.25 100.499 115.25H89.0007C85.0614 115.25 81.8687 118.443 81.8687 122.382C81.8687 126.322 85.0614 129.514 89.0007 129.514H106.571C109.707 129.514 112.601 127.808 114.116 125.063L120.97 112.669" stroke="#353535" stroke-width="0.711071" stroke-linecap="round" stroke-linejoin="round"/>
<path id="Vector_5" d="M111.869 138.858L111.613 127.879" stroke="#353535" stroke-width="0.711071" stroke-linecap="round" stroke-linejoin="round"/>
<path id="Vector_6" d="M124.972 80.2288C132.043 78.5599 136.422 71.4749 134.753 64.404C133.084 57.3331 125.999 52.9539 118.929 54.6227C111.858 56.2916 107.478 63.3766 109.147 70.4476C110.816 77.5185 117.901 81.8977 124.972 80.2288Z" stroke="#353535" stroke-width="0.711071" stroke-linecap="round" stroke-linejoin="round"/>
</g>
<g id="Group_3">
<path id="Vector_7" d="M70.8467 52.1143H81.1572L87.8697 61.0951C89.8892 63.7972 94.1911 62.368 94.1911 58.9904V52.1072H102.162C105.362 52.1072 107.957 48.8505 107.957 44.8401V16.5039" stroke="#353535" stroke-width="0.711071" stroke-linecap="round" stroke-linejoin="round"/>
<path id="Vector_8" d="M98.735 8.6895V37.0328C98.735 41.0432 96.1396 44.2999 92.9398 44.2999H64.3974L57.6849 53.2807C55.6655 55.9828 51.3635 54.5536 51.3635 51.176V44.2928H43.3924C40.1926 44.2928 37.5972 41.0361 37.5972 37.0257V8.6895C37.5972 4.67907 40.1926 1.42236 43.3924 1.42236H92.9398C96.1396 1.42236 98.735 4.67907 98.735 8.6895Z" stroke="#353535" stroke-width="0.711071" stroke-linecap="round" stroke-linejoin="round"/>
</g>
</g>
</g>
</svg>
