<svg width="187" height="139" viewBox="0 0 187 139" fill="none" xmlns="http://www.w3.org/2000/svg">
<g id="Layer_1" style="mix-blend-mode:plus-lighter">
<g id="Group">
<path id="Vector" d="M135.433 57.9296C135.433 61.2209 133.414 64.3356 129.816 67.146C125.426 63.6344 118.536 60.6502 109.978 58.3699C102.123 56.22 92.863 54.7279 82.7252 54.0239C82.3746 53.9804 82.024 53.9804 81.6706 53.937C77.678 53.6733 73.5958 53.5429 69.383 53.5429C42.3942 53.5429 19.2214 59.1173 8.95045 67.1487C5.30846 64.3411 3.28906 61.2236 3.28906 57.9323C3.28906 45.381 32.868 35.1562 69.383 35.1562C73.5958 35.1562 77.678 35.2867 81.6706 35.5503C83.9537 35.6808 86.234 35.901 88.4301 36.1211C106.115 37.9638 120.643 42.2663 128.674 47.8815C133.02 50.9092 135.433 54.3338 135.433 57.9323V57.9296Z" stroke="#494846" stroke-width="1.5" stroke-linecap="round" stroke-linejoin="round"/>
<path id="Vector_2" d="M116.476 97.8228V98.35C116.125 98.3065 115.818 98.263 115.511 98.1734C115.818 98.0429 116.125 97.9532 116.476 97.8228Z" stroke="#494846" stroke-width="1.5" stroke-linecap="round" stroke-linejoin="round"/>
<path id="Vector_3" d="M135.433 110.157V132.933C135.433 139.165 128.192 144.783 116.473 148.909V126.133C119.634 125.035 122.485 123.806 124.942 122.491C131.568 118.936 135.43 114.723 135.43 110.159L135.433 110.157Z" stroke="#494846" stroke-width="1.5" stroke-linecap="round" stroke-linejoin="round"/>
<path id="Vector_4" d="M88.1689 132.012C99.0513 130.914 108.708 128.851 116.476 126.13V148.906C108.708 151.627 99.0513 153.69 88.1689 154.788C82.2004 155.402 75.9247 155.709 69.3854 155.709C66.181 155.709 62.9794 155.622 59.9054 155.489C49.4605 154.962 39.85 153.603 31.5985 151.583C14.4838 147.501 3.2915 140.701 3.2915 132.93V57.9297C3.2915 61.2211 5.3109 64.3358 8.95289 67.1461C13.8669 71.0082 21.7678 74.2561 31.5985 76.5826C39.85 78.602 49.4605 79.961 59.9054 80.4883V132.713C62.9766 132.843 66.181 132.933 69.3854 132.933C75.9247 132.933 82.2004 132.626 88.1689 132.012Z" stroke="#494846" stroke-width="1.5" stroke-linecap="round" stroke-linejoin="round"/>
<path id="Vector_5" d="M31.5986 76.5825V100.5V128.807V151.586" stroke="#494846" stroke-width="1.5" stroke-linecap="round" stroke-linejoin="round"/>
<path id="Vector_6" d="M59.9053 155.491V132.712" stroke="#494846" stroke-width="1.5" stroke-linecap="round" stroke-linejoin="round"/>
<path id="Vector_7" d="M88.1685 154.787V132.011" stroke="#494846" stroke-width="1.5" stroke-linecap="round" stroke-linejoin="round"/>
<path id="Vector_8" d="M88.1687 79.7871V103.705C86.239 103.881 84.2631 104.055 82.2872 104.188C78.1179 104.496 73.8182 104.629 69.3853 104.629C66.1809 104.629 62.9792 104.542 59.9053 104.409V80.491C62.9765 80.6215 66.1809 80.7112 69.3853 80.7112C73.5981 80.7112 77.6804 80.5807 81.673 80.3171C81.7599 80.3171 81.8496 80.3171 81.9366 80.2736C84.043 80.1432 86.1493 79.9665 88.1687 79.7898V79.7871Z" stroke="#494846" stroke-width="1.5" stroke-linecap="round" stroke-linejoin="round"/>
<path id="Vector_9" d="M3.2915 81.8496C3.2915 89.6174 14.4838 96.4203 31.5985 100.503C39.85 102.522 49.4605 103.881 59.9054 104.408" stroke="#494846" stroke-width="1.5" stroke-linecap="round" stroke-linejoin="round"/>
<path id="Vector_10" d="M116.475 98.35V126.13C108.708 128.85 99.0509 130.913 88.1685 132.011V103.704C96.1999 102.87 103.574 101.554 109.98 99.8421C111.909 99.3149 113.755 98.7441 115.464 98.1733H115.508C115.815 98.2603 116.122 98.3038 116.473 98.35H116.475Z" stroke="#494846" stroke-width="1.5" stroke-linecap="round" stroke-linejoin="round"/>
<path id="Vector_11" d="M88.1687 103.704V132.011C82.2002 132.626 75.9246 132.933 69.3853 132.933C66.1809 132.933 62.9792 132.846 59.9053 132.713V104.406C62.9765 104.536 66.1809 104.626 69.3853 104.626C73.8182 104.626 78.1179 104.495 82.2872 104.185C84.2631 104.055 86.2363 103.878 88.1687 103.702V103.704Z" stroke="#494846" stroke-width="1.5" stroke-linecap="round" stroke-linejoin="round"/>
<path id="Vector_12" d="M3.2915 110.157C3.2915 117.925 14.4838 124.727 31.5985 128.81C39.85 130.829 49.4605 132.188 59.9054 132.715" stroke="#494846" stroke-width="1.5" stroke-linecap="round" stroke-linejoin="round"/>
<path id="Vector_13" d="M55.3555 68.1624C52.8197 68.1624 52.8197 66.1294 50.2866 66.1294C47.7535 66.1294 47.7481 68.1624 45.2096 68.1624C42.6711 68.1624 42.6629 66.1294 40.1189 66.1294C37.575 66.1294 37.5723 68.1624 35.0283 68.1624" stroke="#494846" stroke-width="1.5" stroke-linecap="round" stroke-linejoin="round"/>
<path id="Vector_14" d="M101.188 69.179C98.6517 69.179 98.6517 67.146 96.1186 67.146C93.5856 67.146 93.5801 69.179 91.0416 69.179C88.5031 69.179 88.4949 67.146 85.951 67.146C83.407 67.146 83.4043 69.179 80.8604 69.179" stroke="#494846" stroke-width="1.5" stroke-linecap="round" stroke-linejoin="round"/>
</g>
<g id="Group_2">
<path id="Vector_15" d="M213.814 26.0675C213.814 29.3589 211.795 32.4763 208.196 35.2839C204.949 37.7844 200.429 40.0674 194.854 42.0434C187.13 44.764 177.43 46.7834 166.547 47.9249C160.579 48.5391 154.303 48.8463 147.764 48.8463C144.559 48.8463 141.358 48.7593 138.284 48.6261C134.992 48.4495 131.788 48.1858 128.673 47.8787C120.642 42.2608 106.115 37.9611 88.4293 36.1183C88.0352 35.8547 87.6846 35.5911 87.3313 35.2839C83.6893 32.4763 81.6699 29.3589 81.6699 26.0675C81.6699 13.5163 111.249 3.2915 147.764 3.2915C184.279 3.2915 213.814 13.5163 213.814 26.0675Z" stroke="#494846" stroke-width="1.5" stroke-linecap="round" stroke-linejoin="round"/>
<path id="Vector_16" d="M88.4323 36.1182C86.2389 35.898 83.9559 35.6806 81.6729 35.5474V26.0674C81.6729 29.3588 83.6922 32.4762 87.3342 35.2838C87.6848 35.5909 88.0355 35.8545 88.4323 36.1182Z" stroke="#494846" stroke-width="1.5" stroke-linecap="round" stroke-linejoin="round"/>
<path id="Vector_17" d="M135.433 81.8494V110.156C135.433 114.72 131.571 118.932 124.945 122.487C122.488 123.806 119.634 125.034 116.476 126.129V97.8225C128.192 93.6967 135.436 88.0788 135.436 81.8467L135.433 81.8494Z" stroke="#494846" stroke-width="1.5" stroke-linecap="round" stroke-linejoin="round"/>
<path id="Vector_18" d="M116.476 97.8228V98.35C116.125 98.3065 115.818 98.263 115.511 98.1734C115.818 98.0429 116.125 97.9532 116.476 97.8228Z" stroke="#494846" stroke-width="1.5" stroke-linecap="round" stroke-linejoin="round"/>
<path id="Vector_19" d="M213.815 26.0674V101.071C213.815 107.259 206.618 112.921 194.855 117.046C187.13 119.767 177.43 121.786 166.548 122.928C160.579 123.542 154.303 123.849 147.764 123.849C144.56 123.849 141.358 123.762 138.284 123.629C137.319 123.586 136.354 123.499 135.43 123.453V57.9294C135.43 54.3308 133.017 50.9063 128.671 47.8785C131.786 48.1857 134.99 48.4493 138.281 48.626C141.353 48.7564 144.557 48.8461 147.761 48.8461C154.301 48.8461 160.576 48.539 166.545 47.9248C177.427 46.7832 187.128 44.7638 194.852 42.0432C200.426 40.0673 204.946 37.787 208.194 35.2838C211.793 32.4762 213.812 29.3588 213.812 26.0674H213.815Z" stroke="#494846" stroke-width="1.5" stroke-linecap="round" stroke-linejoin="round"/>
<path id="Vector_20" d="M166.55 122.925V47.9219" stroke="#494846" stroke-width="1.5" stroke-linecap="round" stroke-linejoin="round"/>
<path id="Vector_21" d="M129.818 67.1456C128.018 68.5508 125.825 69.9097 123.235 71.1382C121.216 72.1031 118.935 73.068 116.476 73.9024C114.413 74.6036 112.263 75.3075 109.98 75.9218C103.574 77.634 96.2 78.9495 88.1686 79.7839C86.1492 79.9606 84.0428 80.1345 81.9365 80.2677C81.8495 80.3112 81.7598 80.3112 81.6728 80.3112C77.6802 80.5748 73.5979 80.7053 69.3852 80.7053C66.1808 80.7053 62.9791 80.6183 59.9051 80.4851C49.4602 79.9578 39.8497 78.5989 31.5982 76.5795C21.7675 74.253 13.8693 71.0051 8.95264 67.1429C19.2209 59.1115 42.3937 53.5371 69.3852 53.5371C73.5979 53.5371 77.6802 53.6676 81.6728 53.9312C82.0234 53.9747 82.374 53.9747 82.7274 54.0182C92.8651 54.7194 102.125 56.2115 109.98 58.3641C118.538 60.6471 125.428 63.6314 129.818 67.1402V67.1456Z" stroke="#494846" stroke-width="1.5" stroke-linecap="round" stroke-linejoin="round"/>
<path id="Vector_22" d="M213.814 49.9878C213.814 56.1765 206.617 61.8378 194.854 65.9636C187.13 68.6842 177.433 70.7036 166.547 71.8452C160.579 72.4594 154.303 72.7665 147.764 72.7665C144.56 72.7665 141.358 72.6796 138.284 72.5464C137.319 72.5029 136.354 72.4159 135.43 72.3697" stroke="#494846" stroke-width="1.5" stroke-linecap="round" stroke-linejoin="round"/>
<path id="Vector_23" d="M116.476 73.9053V97.8228C116.125 97.9533 115.818 98.043 115.511 98.1734H115.468C113.755 98.7442 111.913 99.3149 109.983 99.8422C103.577 101.554 96.2033 102.87 88.1719 103.704V79.7868C96.2033 78.9524 103.577 77.637 109.983 75.9247C112.266 75.3104 114.416 74.6092 116.479 73.9053H116.476Z" stroke="#494846" stroke-width="1.5" stroke-linecap="round" stroke-linejoin="round"/>
<path id="Vector_24" d="M135.433 57.9292V81.8467C135.433 88.0789 128.192 93.6968 116.473 97.8226V73.905C118.93 73.0706 121.213 72.1058 123.232 71.1409C125.822 69.9124 128.016 68.5508 129.815 67.1483C133.413 64.3407 135.433 61.2233 135.433 57.9319V57.9292Z" stroke="#494846" stroke-width="1.5" stroke-linecap="round" stroke-linejoin="round"/>
<path id="Vector_25" d="M135.433 100.676C136.354 100.72 137.319 100.807 138.287 100.853C141.358 100.984 144.563 101.073 147.767 101.073C154.306 101.073 160.582 100.766 166.55 100.152C177.436 99.0103 187.133 96.9909 194.857 94.2703C206.618 90.1445 213.817 84.4831 213.817 78.251" stroke="#494846" stroke-width="1.5" stroke-linecap="round" stroke-linejoin="round"/>
<path id="Vector_26" d="M87.3345 35.284C97.6027 27.2526 120.776 21.6782 147.767 21.6782C174.759 21.6782 197.972 27.2526 208.2 35.284" stroke="#494846" stroke-width="1.5" stroke-linecap="round" stroke-linejoin="round"/>
<path id="Vector_27" d="M133.737 36.3006C131.201 36.3006 131.201 34.2676 128.668 34.2676C126.135 34.2676 126.129 36.3006 123.591 36.3006C121.052 36.3006 121.044 34.2676 118.5 34.2676C115.956 34.2676 115.954 36.3006 113.41 36.3006" stroke="#494846" stroke-width="1.5" stroke-linecap="round" stroke-linejoin="round"/>
<path id="Vector_28" d="M179.569 37.3167C177.033 37.3167 177.033 35.2837 174.5 35.2837C171.967 35.2837 171.961 37.3167 169.423 37.3167C166.884 37.3167 166.876 35.2837 164.332 35.2837C161.788 35.2837 161.786 37.3167 159.242 37.3167" stroke="#494846" stroke-width="1.5" stroke-linecap="round" stroke-linejoin="round"/>
</g>
</g>
</svg>
